<svg xmlns="http://www.w3.org/2000/svg" viewBox="0 0 100 100" fill="none">
  <!-- Curve at the bottom (arch base) -->
  <path d="M12 76 Q 50 68 88 76 Q 50 71 12 76 Z" fill="#D46A43" />
  
  <!-- Left Building -->
  <path d="M28 73 L28 48 L39 42 L39 71 Z" fill="#D46A43" />
  <path d="M31 49 L31 72" stroke="#0A0A0A" stroke-width="1.2" />
  <path d="M35 47 L35 72" stroke="#0A0A0A" stroke-width="1.2" />

  <!-- Middle Building -->
  <path d="M41 71 L41 33 L52 25 L61 32 L61 71 Z" fill="#D46A43" />
  <!-- Middle Building windows (cutouts using background color #0A0A0A) -->
  <g fill="#0A0A0A">
    <rect x="46" y="34" width="9" height="2" />
    <rect x="46" y="38" width="9" height="2" />
    <rect x="46" y="42" width="9" height="2" />
    <rect x="46" y="46" width="9" height="2" />
    <rect x="46" y="50" width="9" height="2" />
    <rect x="46" y="54" width="9" height="2" />
    <rect x="46" y="58" width="9" height="2" />
    <rect x="46" y="62" width="9" height="2" />
    <rect x="46" y="66" width="9" height="2" />
  </g>

  <!-- Right Building -->
  <path d="M63 71 L63 43 L73 45 L73 71 Z" fill="#D46A43" />
  <path d="M68 45 L68 72" stroke="#0A0A0A" stroke-width="1.2" />
</svg>
